HIERARCHY
ROOT mug2
{
	OFFSET 0.000000 0.000000 0.000000
	CHANNELS 6 Xposition Yposition Zposition Yrotation Xrotation Zrotation
	End Site
	{
		OFFSET 0.000000 0.000000 0.000000
	}
}
MOTION
Frames: 172
Frame Time: 0.008333334
1.410070 5.878438 5.143985 -117.136600 4.228963 -2.927521 
1.412934 5.868295 5.139271 -117.222700 4.222542 -2.376617 
1.416184 5.857295 5.132620 -117.251800 4.231353 -1.632202 
1.420010 5.843119 5.125228 -117.141000 4.198410 -1.270538 
1.423882 5.828578 5.114940 -116.996100 4.110575 -0.603302 
1.428025 5.810575 5.104691 -116.877900 4.060243 -0.274841 
1.431774 5.791384 5.092642 -116.721000 3.916871 0.193554 
1.436944 5.771296 5.078136 -116.411300 3.904516 0.764293 
1.442005 5.748412 5.061904 -116.205100 3.765373 1.335458 
1.447397 5.723551 5.044506 -115.895000 3.586328 1.835534 
1.453400 5.697266 5.024627 -115.510000 3.421005 2.636624 
1.460111 5.668728 5.003468 -115.046200 3.242025 3.297150 
1.466737 5.638136 4.979971 -114.706300 2.981822 3.919521 
1.473238 5.605483 4.956731 -114.194800 2.716168 4.500606 
1.479072 5.570868 4.931746 -113.803300 2.365828 4.949911 
1.484656 5.534704 4.903903 -113.376700 2.139230 5.398093 
1.490339 5.497380 4.874835 -112.899900 1.855329 5.922715 
1.496470 5.458041 4.843891 -112.315600 1.533801 6.407111 
1.501996 5.416439 4.810355 -111.761100 1.290846 6.813241 
1.507978 5.373139 4.774814 -111.137500 1.026499 7.491015 
1.512995 5.327485 4.737173 -110.521400 0.755199 8.035009 
1.518208 5.280494 4.695899 -109.836000 0.516064 8.771564 
1.522235 5.231490 4.654470 -109.095000 0.213698 9.391035 
1.526428 5.182307 4.610827 -108.263100 0.040051 10.257030 
1.529198 5.130484 4.566267 -107.456600 -0.240814 10.844200 
1.532206 5.078549 4.520762 -106.661800 -0.412933 11.513550 
1.533665 5.024554 4.475445 -105.859800 -0.681366 12.032930 
1.536058 4.970279 4.428707 -105.026300 -0.787567 12.551980 
1.537320 4.914385 4.382632 -104.179000 -0.988861 13.108710 
1.538862 4.857328 4.336696 -103.320100 -1.204651 13.469200 
1.539898 4.798952 4.291569 -102.397500 -1.480194 13.844500 
1.540602 4.740238 4.246505 -101.485000 -1.740662 14.116950 
1.540781 4.680863 4.203273 -100.550000 -2.051300 14.355500 
1.540782 4.621066 4.160058 -99.618740 -2.465515 14.635480 
1.540062 4.561731 4.118249 -98.663330 -2.872406 14.684510 
1.537879 4.502659 4.077919 -97.739140 -3.461182 14.763380 
1.536328 4.445272 4.039701 -96.667140 -3.973297 14.792470 
1.533759 4.387802 4.001124 -95.788210 -4.495361 14.888150 
1.531307 4.333356 3.965031 -94.823390 -4.979980 14.837710 
1.527369 4.279809 3.930529 -93.967650 -5.476196 15.015960 
1.523457 4.229018 3.897638 -93.160770 -5.825165 15.134730 
1.519104 4.181326 3.867033 -92.476380 -6.163696 15.213440 
1.514515 4.136297 3.838006 -91.898740 -6.349182 15.203360 
1.509742 4.093736 3.811200 -91.396060 -6.439423 15.208130 
1.504542 4.054508 3.786793 -91.018310 -6.499969 15.243660 
1.499599 4.017940 3.763489 -90.712680 -6.437897 15.336060 
1.494700 3.983649 3.741968 -90.399290 -6.319855 15.453960 
1.489751 3.951817 3.720742 -90.140900 -6.159149 15.611870 
1.485352 3.920950 3.700217 -89.850220 -5.947815 15.760280 
1.481415 3.892285 3.680360 -89.539490 -5.737274 16.002010 
1.477310 3.863918 3.662098 -89.273900 -5.637177 16.077210 
1.474602 3.837056 3.644020 -88.945740 -5.562958 16.159580 
1.472256 3.809682 3.626901 -88.610470 -5.564178 16.105430 
1.470419 3.783801 3.610712 -88.224000 -5.679688 16.012290 
1.470941 3.758319 3.595007 -87.704470 -5.897064 15.871850 
1.470765 3.733158 3.579490 -87.241610 -6.051483 15.673450 
1.471324 3.709309 3.565636 -86.733950 -6.311890 15.323110 
1.473158 3.685853 3.552243 -86.274200 -6.595337 14.873070 
1.474445 3.663983 3.540854 -85.786960 -6.915619 14.531880 
1.477650 3.642758 3.530723 -85.349760 -7.194946 13.959670 
1.479851 3.622471 3.521730 -84.975830 -7.489929 13.435640 
1.482911 3.603401 3.513506 -84.669490 -7.756989 12.899260 
1.485982 3.586074 3.505415 -84.372070 -7.929016 12.629780 
1.488813 3.568587 3.498590 -84.137480 -8.168213 12.401290 
1.490780 3.552474 3.492009 -83.991550 -8.314728 12.158240 
1.493777 3.537070 3.485937 -83.845400 -8.334503 12.155940 
1.495444 3.522239 3.481462 -83.771510 -8.385345 12.133480 
1.497583 3.507461 3.477692 -83.782100 -8.496063 12.240120 
1.499641 3.492855 3.475576 -83.804080 -8.619934 12.253360 
1.502760 3.478120 3.474385 -83.807890 -8.730438 12.211120 
1.505672 3.462794 3.474522 -83.929630 -8.904358 12.171550 
1.508341 3.446822 3.476527 -84.078490 -9.171143 12.060800 
1.509216 3.451612 3.486037 -84.540890 -8.799835 11.251230 
1.510673 3.454040 3.493340 -84.907710 -8.390198 10.700090 
1.513529 3.451803 3.498732 -85.230070 -8.140045 10.379690 
1.516566 3.446031 3.501494 -85.351350 -8.034698 10.296500 
1.518428 3.443968 3.506141 -85.417790 -7.875885 9.971910 
1.520777 3.442677 3.511199 -85.650270 -7.716797 9.455162 
1.523075 3.440109 3.514844 -85.705350 -7.451691 9.148318 
1.525341 3.438897 3.518306 -85.797180 -7.200409 8.828363 
1.527312 3.438140 3.521764 -85.834960 -6.926178 8.490927 
1.529561 3.437269 3.524112 -85.839600 -6.652283 8.342632 
1.531785 3.435114 3.526720 -85.830930 -6.259796 7.946776 
1.533649 3.434046 3.529367 -85.936460 -5.728546 7.653100 
1.535686 3.432439 3.532222 -85.993530 -5.149384 7.377606 
1.537202 3.430198 3.534795 -86.062930 -4.551453 7.107573 
1.539161 3.428280 3.537323 -86.081700 -3.768646 6.661129 
1.540160 3.425707 3.540148 -86.091430 -3.044067 6.180378 
1.540710 3.422493 3.544025 -86.087590 -2.374817 5.800160 
1.540474 3.418673 3.547802 -86.164180 -1.679260 5.192806 
1.539699 3.414829 3.552064 -86.234380 -0.931976 4.615050 
1.538924 3.410866 3.557516 -86.274080 -0.238251 3.899879 
1.537406 3.406233 3.563380 -86.412930 0.534091 3.251114 
1.536315 3.406998 3.564145 -86.594420 0.782892 3.360582 
1.534931 3.407622 3.566260 -86.585330 0.735662 3.113299 
1.532990 3.407530 3.566228 -86.575200 0.777786 3.134479 
1.530046 3.406671 3.569155 -86.788700 0.651069 3.197381 
1.528287 3.406501 3.571035 -86.976320 0.628400 3.101436 
1.527444 3.406502 3.572822 -87.087550 0.595715 3.131417 
1.526912 3.406375 3.574369 -87.152950 0.553742 3.112643 
1.527258 3.406465 3.574850 -87.176240 0.555574 3.112039 
1.527951 3.406590 3.575347 -87.217500 0.549633 3.149290 
1.528364 3.406485 3.575861 -87.230960 0.526466 3.155267 
1.528712 3.406428 3.575964 -87.261810 0.508150 3.142917 
1.529018 3.406333 3.575976 -87.283080 0.527834 3.109616 
1.529387 3.407037 3.575459 -87.310550 0.612097 3.110024 
1.528633 3.406380 3.576224 -87.357540 0.524351 3.153354 
1.528311 3.406278 3.575887 -87.355680 0.513030 3.150522 
1.528335 3.406118 3.575486 -87.333440 0.556874 3.118179 
1.528201 3.406345 3.574991 -87.337590 0.591869 3.162294 
1.528298 3.406216 3.575072 -87.336000 0.577546 3.121493 
1.528566 3.406187 3.574975 -87.349790 0.601387 3.162040 
1.528882 3.406282 3.575197 -87.327090 0.594352 3.188097 
1.528935 3.406222 3.575151 -87.350040 0.597435 3.158689 
1.528457 3.406212 3.575959 -87.356140 0.532013 3.163610 
1.528609 3.406331 3.575587 -87.342650 0.571888 3.147552 
1.528008 3.406435 3.576285 -87.290530 0.546647 3.144759 
1.527426 3.406638 3.576769 -87.188960 0.539513 3.136321 
1.526493 3.406694 3.577211 -87.051640 0.571092 3.120765 
1.525916 3.406813 3.577852 -86.824890 0.591081 3.097957 
1.525012 3.406781 3.578254 -86.712680 0.577327 3.077878 
1.524697 3.407003 3.578399 -86.568850 0.533660 3.135379 
1.524148 3.406981 3.578811 -86.527620 0.537288 3.090483 
1.523921 3.406857 3.579030 -86.493770 0.563794 3.122457 
1.523945 3.406884 3.579147 -86.470310 0.565047 3.117217 
1.524012 3.406950 3.578769 -86.462740 0.575371 3.131519 
1.523872 3.406948 3.578808 -86.463010 0.566981 3.123658 
1.523848 3.406995 3.578506 -86.430600 0.570892 3.131786 
1.523772 3.406911 3.578336 -86.403870 0.565880 3.114406 
1.523720 3.406972 3.578122 -86.348690 0.548942 3.145841 
1.523726 3.406943 3.577996 -86.324460 0.539369 3.188674 
1.524043 3.406976 3.577672 -86.335140 0.550759 3.177300 
1.524071 3.406991 3.577257 -86.348940 0.530337 3.168402 
1.524357 3.406918 3.577088 -86.349880 0.533349 3.211206 
1.524256 3.406771 3.576661 -86.413390 0.551815 3.182195 
1.524324 3.406808 3.576125 -86.484100 0.563372 3.191097 
1.524270 3.406880 3.575475 -86.587890 0.584941 3.181948 
1.524369 3.406925 3.574794 -86.713530 0.610959 3.178578 
1.524466 3.406627 3.574324 -86.866120 0.606351 3.176321 
1.524481 3.406891 3.573599 -87.012080 0.599839 3.191348 
1.524787 3.406539 3.573127 -87.176730 0.573909 3.142691 
1.525012 3.406862 3.572336 -87.325530 0.583482 3.185971 
1.525530 3.406496 3.571896 -87.552980 0.579455 3.126031 
1.526326 3.406472 3.571179 -87.723660 0.629686 3.175919 
1.527240 3.406229 3.571253 -87.870880 0.622746 3.142039 
1.527769 3.405833 3.571294 -88.032140 0.574353 3.171103 
1.528843 3.405958 3.571032 -88.161680 0.600811 3.181963 
1.529633 3.405720 3.570718 -88.294740 0.559404 3.189119 
1.531049 3.406563 3.570123 -88.340940 0.678054 3.156762 
1.530997 3.405925 3.570441 -88.472200 0.582783 3.188309 
1.532454 3.406613 3.569716 -88.471830 0.700647 3.172485 
1.531925 3.405771 3.570167 -88.561190 0.562922 3.206869 
1.532397 3.405701 3.570107 -88.531590 0.559864 3.218515 
1.532531 3.405767 3.569904 -88.484070 0.574706 3.228608 
1.533112 3.405716 3.570011 -88.418910 0.570420 3.229646 
1.532987 3.405799 3.570161 -88.302370 0.578442 3.204271 
1.532277 3.406149 3.570241 -88.095520 0.593708 3.233026 
1.531191 3.406039 3.570839 -87.850400 0.587603 3.220490 
1.529763 3.405843 3.571283 -87.610410 0.605836 3.158122 
1.528538 3.406183 3.571390 -87.408940 0.564720 3.153307 
1.527695 3.406381 3.571437 -87.352360 0.557754 3.179120 
1.526927 3.406684 3.571453 -87.352540 0.531337 3.187698 
1.526454 3.407073 3.571613 -87.320130 0.445206 3.196520 
1.526481 3.407396 3.571710 -87.284970 0.274434 3.193365 
1.527086 3.408204 3.571765 -87.223390 0.064828 3.148087 
1.528059 3.409301 3.572124 -87.077510 -0.146362 3.144860 
1.528444 3.410119 3.572988 -86.969420 -0.377441 3.112651 
1.528993 3.410971 3.573825 -86.813200 -0.632904 3.082726 
1.529398 3.411711 3.574275 -86.629520 -0.815338 3.065217 
1.529856 3.412256 3.574833 -86.467860 -1.033966 3.037534 
1.530518 3.413895 3.574811 -86.162320 -1.219513 3.166582 
1.529905 3.415982 3.574603 -85.977840 -1.361908 3.267118 
